<mxfile host="app.diagrams.net" agent="Mozilla/5.0 (Macintosh; Intel Mac OS X 10_15_7) AppleWebKit/537.36 (KHTML, like Gecko) Chrome/137.0.0.0 Safari/537.36" version="27.2.0">
  <diagram name="Page-1" id="2tu3GrSwT-DnyXylyrqT">
    <mxGraphModel grid="1" page="1" gridSize="10" guides="1" tooltips="1" connect="1" arrows="1" fold="1" pageScale="1" pageWidth="850" pageHeight="1100" math="0" shadow="0">
      <root>
        <mxCell id="0" />
        <mxCell id="1" parent="0" />
        <mxCell id="NT16fxukYI7FiQGrp8ev-5" style="edgeStyle=orthogonalEdgeStyle;rounded=0;orthogonalLoop=1;jettySize=auto;html=1;entryX=0;entryY=0.5;entryDx=0;entryDy=0;" edge="1" parent="1" source="NT16fxukYI7FiQGrp8ev-1" target="NT16fxukYI7FiQGrp8ev-2">
          <mxGeometry relative="1" as="geometry" />
        </mxCell>
        <mxCell id="NT16fxukYI7FiQGrp8ev-1" value="&lt;font style=&quot;font-size: 12px;&quot;&gt;&lt;b&gt;Stress Reduction Theory&lt;/b&gt;&lt;/font&gt;&lt;div&gt;&lt;span style=&quot;font-size: 10px; background-color: transparent; color: light-dark(rgb(0, 0, 0), rgb(255, 255, 255));&quot;&gt;Exposure to nature reduces stress through physiological responses.&lt;/span&gt;&lt;/div&gt;" style="rounded=0;whiteSpace=wrap;html=1;fillColor=#B9E0A5;" vertex="1" parent="1">
          <mxGeometry x="120" y="435" width="160" height="80" as="geometry" />
        </mxCell>
        <mxCell id="NT16fxukYI7FiQGrp8ev-2" value="&lt;div&gt;&lt;b&gt;&lt;span style=&quot;background-color: transparent; color: light-dark(rgb(0, 0, 0), rgb(255, 255, 255));&quot;&gt;Improved&amp;nbsp;&lt;/span&gt;&lt;span style=&quot;background-color: transparent; color: light-dark(rgb(0, 0, 0), rgb(255, 255, 255));&quot;&gt;Student Mental Wellbeing&lt;/span&gt;&lt;/b&gt;&lt;/div&gt;" style="ellipse;whiteSpace=wrap;html=1;aspect=fixed;fillColor=#86DECE;" vertex="1" parent="1">
          <mxGeometry x="325" y="420" width="110" height="110" as="geometry" />
        </mxCell>
        <mxCell id="4V1bSwRivOOLp8dCdWAd-1" value="" style="edgeStyle=orthogonalEdgeStyle;rounded=0;orthogonalLoop=1;jettySize=auto;html=1;" edge="1" parent="1" source="NT16fxukYI7FiQGrp8ev-4" target="NT16fxukYI7FiQGrp8ev-8">
          <mxGeometry relative="1" as="geometry" />
        </mxCell>
        <mxCell id="NT16fxukYI7FiQGrp8ev-4" value="&lt;b&gt;Experiential Learning Theory&lt;/b&gt;&lt;div&gt;&lt;div&gt;&lt;span style=&quot;background-color: transparent; color: light-dark(rgb(0, 0, 0), rgb(255, 255, 255));&quot;&gt;&lt;font style=&quot;font-size: 10px;&quot;&gt;Learning through direct experience, reflection, and application.&lt;/font&gt;&lt;/span&gt;&lt;/div&gt;&lt;/div&gt;" style="rounded=0;whiteSpace=wrap;html=1;fillColor=#FFB570;" vertex="1" parent="1">
          <mxGeometry x="300" y="220" width="160" height="60" as="geometry" />
        </mxCell>
        <mxCell id="NT16fxukYI7FiQGrp8ev-9" style="edgeStyle=orthogonalEdgeStyle;rounded=0;orthogonalLoop=1;jettySize=auto;html=1;entryX=0.5;entryY=0;entryDx=0;entryDy=0;" edge="1" parent="1" source="NT16fxukYI7FiQGrp8ev-8" target="NT16fxukYI7FiQGrp8ev-2">
          <mxGeometry relative="1" as="geometry" />
        </mxCell>
        <mxCell id="NT16fxukYI7FiQGrp8ev-8" value="&lt;div&gt;&lt;b&gt;Attention Restoration Theory&lt;/b&gt;&lt;/div&gt;&lt;div&gt;&lt;div&gt;&lt;font style=&quot;font-size: 10px;&quot;&gt;Spending time in nature improves attention and cognitive function.&lt;/font&gt;&lt;/div&gt;&lt;/div&gt;" style="rounded=0;whiteSpace=wrap;html=1;fillColor=#FFD966;" vertex="1" parent="1">
          <mxGeometry x="300" y="320" width="160" height="60" as="geometry" />
        </mxCell>
        <mxCell id="NT16fxukYI7FiQGrp8ev-11" style="edgeStyle=orthogonalEdgeStyle;rounded=0;orthogonalLoop=1;jettySize=auto;html=1;entryX=1;entryY=0.5;entryDx=0;entryDy=0;" edge="1" parent="1" source="NT16fxukYI7FiQGrp8ev-10" target="NT16fxukYI7FiQGrp8ev-2">
          <mxGeometry relative="1" as="geometry" />
        </mxCell>
        <mxCell id="NT16fxukYI7FiQGrp8ev-10" value="&lt;b&gt;Resilience Theory&lt;/b&gt;&lt;div&gt;&lt;div&gt;&lt;font style=&quot;font-size: 10px;&quot;&gt;Thriving in challenging conditions and finding strength through social support.&lt;/font&gt;&lt;/div&gt;&lt;/div&gt;" style="rounded=0;whiteSpace=wrap;html=1;fillColor=#F19C99;" vertex="1" parent="1">
          <mxGeometry x="480" y="435" width="160" height="80" as="geometry" />
        </mxCell>
        <mxCell id="4V1bSwRivOOLp8dCdWAd-6" value="" style="edgeStyle=orthogonalEdgeStyle;rounded=0;orthogonalLoop=1;jettySize=auto;html=1;" edge="1" parent="1" source="4V1bSwRivOOLp8dCdWAd-3" target="4V1bSwRivOOLp8dCdWAd-4">
          <mxGeometry relative="1" as="geometry" />
        </mxCell>
        <mxCell id="4V1bSwRivOOLp8dCdWAd-3" value="&lt;b&gt;Structure&lt;/b&gt;&lt;br&gt;&lt;div&gt;&lt;span style=&quot;font-size: 10px; background-color: transparent; color: light-dark(rgb(0, 0, 0), rgb(255, 255, 255));&quot;&gt;Nature is unpredictable&lt;/span&gt;&lt;/div&gt;" style="rounded=0;whiteSpace=wrap;html=1;fillColor=#FFD966;" vertex="1" parent="1">
          <mxGeometry x="160" y="640" width="120" height="40" as="geometry" />
        </mxCell>
        <mxCell id="4V1bSwRivOOLp8dCdWAd-7" value="" style="edgeStyle=orthogonalEdgeStyle;rounded=0;orthogonalLoop=1;jettySize=auto;html=1;" edge="1" parent="1" source="4V1bSwRivOOLp8dCdWAd-4" target="4V1bSwRivOOLp8dCdWAd-5">
          <mxGeometry relative="1" as="geometry" />
        </mxCell>
        <mxCell id="4V1bSwRivOOLp8dCdWAd-4" value="&lt;div&gt;&lt;span style=&quot;background-color: transparent; color: light-dark(rgb(0, 0, 0), rgb(255, 255, 255));&quot;&gt;&lt;b&gt;Classroom Climate&lt;/b&gt;&lt;/span&gt;&lt;/div&gt;&lt;div&gt;&lt;span style=&quot;font-size: 10px; background-color: transparent; color: light-dark(rgb(0, 0, 0), rgb(255, 255, 255));&quot;&gt;Smaller matters&lt;/span&gt;&lt;/div&gt;" style="rounded=0;whiteSpace=wrap;html=1;fillColor=#B9E0A5;" vertex="1" parent="1">
          <mxGeometry x="320" y="640" width="120" height="40" as="geometry" />
        </mxCell>
        <mxCell id="4V1bSwRivOOLp8dCdWAd-5" value="&lt;div&gt;&lt;span style=&quot;background-color: transparent; color: light-dark(rgb(0, 0, 0), rgb(255, 255, 255));&quot;&gt;&lt;b&gt;Feelings&lt;/b&gt;&lt;/span&gt;&lt;/div&gt;&lt;div&gt;&lt;span style=&quot;font-size: 10px;&quot;&gt;Happy Outside&lt;/span&gt;&lt;/div&gt;" style="rounded=0;whiteSpace=wrap;html=1;fillColor=#86DECE;" vertex="1" parent="1">
          <mxGeometry x="480" y="640" width="120" height="40" as="geometry" />
        </mxCell>
      </root>
    </mxGraphModel>
  </diagram>
</mxfile>
